<?xml version="1.0" encoding="UTF-8" standalone="no"?>
<!-- Generated by IcoMoon.io -->

<svg
   xmlns:dc="http://purl.org/dc/elements/1.1/"
   xmlns:cc="http://creativecommons.org/ns#"
   xmlns:rdf="http://www.w3.org/1999/02/22-rdf-syntax-ns#"
   xmlns:svg="http://www.w3.org/2000/svg"
   xmlns="http://www.w3.org/2000/svg"
   xmlns:sodipodi="http://sodipodi.sourceforge.net/DTD/sodipodi-0.dtd"
   xmlns:inkscape="http://www.inkscape.org/namespaces/inkscape"
   version="1.1"
   width="512"
   height="512"
   viewBox="0 0 512 512"
   id="svg2"
   inkscape:version="0.48.5 r10040"
   sodipodi:docname="uEA03-shopping_cart.svg">
  <metadata
     id="metadata15">
    <rdf:RDF>
      <cc:Work
         rdf:about="">
        <dc:format>image/svg+xml</dc:format>
        <dc:type
           rdf:resource="http://purl.org/dc/dcmitype/StillImage" />
      </cc:Work>
    </rdf:RDF>
  </metadata>
  <defs
     id="defs13" />
  <sodipodi:namedview
     pagecolor="#ffffff"
     bordercolor="#666666"
     borderopacity="1"
     objecttolerance="10"
     gridtolerance="10"
     guidetolerance="10"
     inkscape:pageopacity="0"
     inkscape:pageshadow="2"
     inkscape:window-width="938"
     inkscape:window-height="506"
     id="namedview11"
     showgrid="false"
     inkscape:zoom="0.43457604"
     inkscape:cx="289.69967"
     inkscape:cy="268.61827"
     inkscape:window-x="0"
     inkscape:window-y="0"
     inkscape:window-maximized="0"
     inkscape:current-layer="svg2" />
  <g
     id="icomoon-ignore"
     transform="translate(0,-256)" />
  <path
     d="m 442.79435,114.02692 c -4.07466,-4.67199 -9.94132,-7.35999 -16.12798,-7.35999 H 131.86126 l -4.16,-24.83198 C 125.9946,71.55229 117.0986,64.00029 106.66661,64.00029 H 58.66665 c -11.797324,0 -21.333317,9.536 -21.333317,21.33332 0,11.79733 9.535993,21.33332 21.333317,21.33332 h 29.930642 l 39.679968,238.16515 c 0.17067,0.96 0.66133,1.74933 0.96,2.64533 0.34133,1.13067 0.61867,2.19733 1.152,3.22133 0.68267,1.408 1.6,2.60267 2.56,3.81867 0.66133,0.83199 1.25866,1.66399 2.02666,2.38933 1.23734,1.152 2.66667,1.96266 4.11733,2.77333 0.81067,0.448 1.51467,1.04533 2.38933,1.38666 2.47467,1.00267 5.07733,1.6 7.82933,1.6 0.0213,0 234.68782,0 234.68782,0 11.79733,0 21.33332,-9.53599 21.33332,-21.33331 0,-11.79733 -9.53599,-21.33332 -21.33332,-21.33332 H 167.40256 l -3.54133,-21.33332 h 241.47182 c 10.62399,0 19.62665,-7.80799 21.11998,-18.30398 l 21.33332,-149.33322 c 0.87467,-6.144 -0.96,-12.35199 -4.992,-17.00266 z m -40.7253,35.30664 -6.07999,42.66664 h -75.98928 v -42.66664 h 82.06927 z m -103.40259,0 v 42.66664 h -63.99995 v -42.66664 h 63.99995 z m 0,63.99995 v 42.66664 h -63.99995 v -42.66664 h 63.99995 z M 213.3332,149.33356 v 42.66664 h -63.99995 c -1.13067,0 -2.15467,0.32 -3.15734,0.64 l -7.21066,-43.30664 h 74.36795 z m -63.70129,63.99995 h 63.70129 v 42.66664 h -56.59729 l -7.104,-42.66664 z m 170.36787,42.66664 v -42.66664 h 72.91728 l -6.08,42.66664 h -66.83728 z"
     id="path5"
     inkscape:connector-curvature="0" />
  <path
     d="m 213.3332,416.00002 c 0,17.67332 -14.32666,31.99998 -31.99998,31.99998 -17.67332,0 -31.99997,-14.32666 -31.99997,-31.99998 0,-17.67332 14.32665,-31.99997 31.99997,-31.99997 17.67332,0 31.99998,14.32665 31.99998,31.99997 z"
     id="path7"
     inkscape:connector-curvature="0" />
  <path
     d="m 405.33305,416.00002 c 0,17.67332 -14.32666,31.99998 -31.99998,31.99998 -17.67332,0 -31.99997,-14.32666 -31.99997,-31.99998 0,-17.67332 14.32665,-31.99997 31.99997,-31.99997 17.67332,0 31.99998,14.32665 31.99998,31.99997 z"
     id="path9"
     inkscape:connector-curvature="0" />
</svg>
