<?xml version="1.0" encoding="utf-8"?>
<!-- Generator: Adobe Illustrator 18.0.0, SVG Export Plug-In . SVG Version: 6.00 Build 0)  -->
<!DOCTYPE svg PUBLIC "-//W3C//DTD SVG 1.1//EN" "http://www.w3.org/Graphics/SVG/1.1/DTD/svg11.dtd">
<svg version="1.1" id="Layer_1" xmlns="http://www.w3.org/2000/svg" xmlns:xlink="http://www.w3.org/1999/xlink" x="0px" y="0px"
	 viewBox="-244 -244 512 512" enable-background="new -244 -244 512 512" xml:space="preserve">
<path d="M-163.1-68.7c23.8-18.5,43.5-5.7,69.8,24.7c3,3.4,6.9-0.6,9.2-2.5c2.2-2,37-33.2,38.7-34.7c1.7-1.5,3.7-4.3,1-7.4
	c-2.7-3.1-12.6-15.9-18.9-24.2c-46.1-60.2,126-101.1,99.6-101.7c-13.4-0.4-67.4-1-75.5-0.1c-32.7,3.4-73.7,34-94.4,48.2
	c-27,18.5-37.1,29.3-38.8,30.8c-7.6,6.7-1.2,22.1-15.1,34.2c-14.6,12.8-23.8,3.1-32.3,10.5c-4.2,3.7-16,12.5-19.3,15.5
	c-3.4,3-4,8-0.5,12c0,0,32.2,35.6,34.9,38.7c2.7,3.1,10,5.8,14.4,1.8c4.5-4,16.1-14.1,18-15.9C-170.3-40.4-173.5-60.7-163.1-68.7z
	 M-17.8-55.6c-3.1-3.5-6.9-3.6-10.1-0.7l-36.5,31.9c-2.9,2.5-3.3,7.2-0.7,10.2l211.3,240.4c4.9,5.7,13.5,6.3,19.1,1.3l24.7-20.7
	c5.7-5,6.2-13.6,1.3-19.3L-17.8-55.6z M263.9-157.9c-1.9-12.6-8.4-10-11.8-4.6c-3.4,5.4-18.4,28.1-24.5,38.4
	c-6.1,10.2-21.2,30.3-49.3,10.4c-29.2-20.7-19.1-35.1-14-44.8c5.1-9.8,20.8-37.1,23.1-40.5c2.3-3.4-0.4-13.4-9.4-9.2
	c-9.1,4.2-64.3,26.1-71.9,57.6c-7.8,32,6.5,60.6-21.6,89L50.3-26l34.4,39.9l42.1-40c10-10.1,31.5-19.9,50.9-15.5
	c41.6,9.4,64.3-6.2,78-32C267.9-96.7,265.8-145.3,263.9-157.9z M-173.2,190.1c-5.3,5.3-5.3,14,0,19.3l24.2,23.7
	c5.3,5.3,13.7,3.1,19-2.2L-5,108l-38.3-43.7L-173.2,190.1z"/>
</svg>
