<?xml version="1.0" encoding="utf-8"?>
<!-- Generator: Adobe Illustrator 18.0.0, SVG Export Plug-In . SVG Version: 6.00 Build 0)  -->
<!DOCTYPE svg PUBLIC "-//W3C//DTD SVG 1.1//EN" "http://www.w3.org/Graphics/SVG/1.1/DTD/svg11.dtd">
<svg version="1.1" id="Layer_1" xmlns="http://www.w3.org/2000/svg" xmlns:xlink="http://www.w3.org/1999/xlink" x="0px" y="0px"
	 viewBox="-244 -244 512 512" enable-background="new -244 -244 512 512" xml:space="preserve">
<path d="M-25.6,93.7c-13.3,69.9-29.6,136.9-77.9,171.9C-118.3,159.9-81.6,80.6-64.5-3.6c-29.1-49,3.5-147.5,64.8-123.2
	c75.5,29.8-65.4,182,29.2,201c98.7,19.8,139-171.3,77.8-233.4C18.9-249-150.2-161.3-129.4-32.8c5.1,31.4,37.5,40.9,13,84.3
	C-173,39-189.9-5.7-187.7-65.2c3.5-97.4,87.5-165.6,171.8-175.1c106.6-12,206.7,39.2,220.5,139.4c15.6,113.2-48.1,235.8-162.1,227
	C11.6,123.7-1.4,108.4-25.6,93.7z"/>
</svg>
