<?xml version="1.0" encoding="utf-8"?>
<!-- Generated by IcoMoon.io -->
<!DOCTYPE svg PUBLIC "-//W3C//DTD SVG 1.1//EN" "http://www.w3.org/Graphics/SVG/1.1/DTD/svg11.dtd">
<svg version="1.1" xmlns="http://www.w3.org/2000/svg" xmlns:xlink="http://www.w3.org/1999/xlink" width="512" height="512" viewBox="0 0 512 512"><g id="icomoon-ignore">
</g>
<path d="M268.813 211.255v-211.255h-96.023v211.255h-75.916l122.202 122.224 122.202-122.224zM367.912 134.437h-60.691v38.409h60.691c10.58 0 16.133 0.31 16.133 10.868v144.035c0 15.902-9.871 37.14-25.733 37.14h-294.189c-15.866 0-25.733-21.239-25.733-37.14v-144.035c0-10.565 5.551-10.868 16.133-10.868h60.691v-38.409h-60.691c-31.768 0-54.54 17.509-54.54 49.282v211.255c0 31.768 22.779 65.95 54.54 65.95h313.392c31.768 0 54.54-34.168 54.54-65.95v-211.255c0-31.768-22.779-49.282-54.54-49.282zM384.044 394.974c0 10.58-5.551 27.537-16.133 27.537h-313.392c-10.58 0-16.133-16.961-16.133-27.537v-29.060c0 6.086 14.885 18.17 25.733 18.17h294.189c10.833 0 25.733-12.082 25.733-18.17v29.060z"></path>
</svg>
