<?xml version="1.0" encoding="UTF-8" standalone="no"?>
<!-- Generator: Adobe Illustrator 18.0.0, SVG Export Plug-In . SVG Version: 6.00 Build 0)  -->

<svg
   xmlns:dc="http://purl.org/dc/elements/1.1/"
   xmlns:cc="http://creativecommons.org/ns#"
   xmlns:rdf="http://www.w3.org/1999/02/22-rdf-syntax-ns#"
   xmlns:svg="http://www.w3.org/2000/svg"
   xmlns="http://www.w3.org/2000/svg"
   xmlns:xlink="http://www.w3.org/1999/xlink"
   xmlns:sodipodi="http://sodipodi.sourceforge.net/DTD/sodipodi-0.dtd"
   xmlns:inkscape="http://www.inkscape.org/namespaces/inkscape"
   version="1.1"
   x="0px"
   y="0px"
   viewBox="-244 -244 512 512"
   enable-background="new -244 -244 512 512"
   xml:space="preserve"
   id="svg16"
   sodipodi:docname="uEA17-loading.svg"
   inkscape:version="0.92.4 (5da689c313, 2019-01-14)"><metadata
   id="metadata22"><rdf:RDF><cc:Work
       rdf:about=""><dc:format>image/svg+xml</dc:format><dc:type
         rdf:resource="http://purl.org/dc/dcmitype/StillImage" /><dc:title></dc:title></cc:Work></rdf:RDF></metadata><defs
   id="defs20" /><sodipodi:namedview
   pagecolor="#ffffff"
   bordercolor="#666666"
   borderopacity="1"
   objecttolerance="10"
   gridtolerance="10"
   guidetolerance="10"
   inkscape:pageopacity="0"
   inkscape:pageshadow="2"
   inkscape:window-width="1612"
   inkscape:window-height="1607"
   id="namedview18"
   showgrid="false"
   inkscape:zoom="1.3037281"
   inkscape:cx="198.85037"
   inkscape:cy="271.28932"
   inkscape:window-x="1887"
   inkscape:window-y="276"
   inkscape:window-maximized="0"
   inkscape:current-layer="svg16" />
<g
   id="Layer_1"
   display="none">
	<path
   display="inline"
   d="M-163.1-68.7c23.8-18.5,43.5-5.7,69.8,24.7c3,3.4,6.9-0.6,9.2-2.5c2.2-2,37-33.2,38.7-34.7   c1.7-1.5,3.7-4.3,1-7.4c-2.7-3.1-12.6-15.9-18.9-24.2c-46.1-60.2,126-101.1,99.6-101.7c-13.4-0.4-67.4-1-75.5-0.1   c-32.7,3.4-73.7,34-94.4,48.2c-27,18.5-37.1,29.3-38.8,30.8c-7.6,6.7-1.2,22.1-15.1,34.2c-14.6,12.8-23.8,3.1-32.3,10.5   c-4.2,3.7-16,12.5-19.3,15.5c-3.4,3-4,8-0.5,12c0,0,32.2,35.6,34.9,38.7c2.7,3.1,10,5.8,14.4,1.8c4.5-4,16.1-14.1,18-15.9   C-170.3-40.4-173.5-60.7-163.1-68.7z M-17.8-55.6c-3.1-3.5-6.9-3.6-10.1-0.7l-36.5,31.9c-2.9,2.5-3.3,7.2-0.7,10.2l211.3,240.4   c4.9,5.7,13.5,6.3,19.1,1.3l24.7-20.7c5.7-5,6.2-13.6,1.3-19.3L-17.8-55.6z M263.9-157.9c-1.9-12.6-8.4-10-11.8-4.6   c-3.4,5.4-18.4,28.1-24.5,38.4c-6.1,10.2-21.2,30.3-49.3,10.4c-29.2-20.7-19.1-35.1-14-44.8c5.1-9.8,20.8-37.1,23.1-40.5   c2.3-3.4-0.4-13.4-9.4-9.2c-9.1,4.2-64.3,26.1-71.9,57.6c-7.8,32,6.5,60.6-21.6,89L50.3-26l34.4,39.9l42.1-40   c10-10.1,31.5-19.9,50.9-15.5c41.6,9.4,64.3-6.2,78-32C267.9-96.7,265.8-145.3,263.9-157.9z M-173.2,190.1c-5.3,5.3-5.3,14,0,19.3   l24.2,23.7c5.3,5.3,13.7,3.1,19-2.2L-5,108l-38.3-43.7L-173.2,190.1z"
   id="path2" />

		<image
   sodipodi:absref="H:\Code\skeleton-peddler\assets\icons\../../compatible icon.png"
   xlink:href="../../compatible icon.png"
   id="image4"
   transform="matrix(21.1379 0 0 21.1379 -241.9456 -241.4293)"
   height="23"
   width="24"
   overflow="visible"
   display="inline">
	</image>
</g>

<circle
   style="opacity:1;fill:#000000;fill-opacity:1;fill-rule:nonzero;stroke:none;stroke-width:9.18118477;stroke-miterlimit:4;stroke-dasharray:none;stroke-opacity:1"
   id="path4532"
   cx="-140.42249"
   cy="6.733603"
   r="100"
   transform="rotate(21.622878)" /><circle
   r="75"
   cy="-171.20175"
   cx="13.856203"
   id="circle4534"
   style="opacity:1;fill:#000000;fill-opacity:1;fill-rule:nonzero;stroke:none;stroke-width:6.8858881;stroke-miterlimit:4;stroke-dasharray:none;stroke-opacity:1"
   inkscape:transform-center-x="19.527702"
   inkscape:transform-center-y="97.881488"
   transform="rotate(9.7344209)" /><circle
   style="opacity:1;fill:#000000;fill-opacity:1;fill-rule:nonzero;stroke:none;stroke-width:4.59059238;stroke-miterlimit:4;stroke-dasharray:none;stroke-opacity:1"
   id="circle4536"
   cx="209.5983"
   cy="16.584696"
   r="50"
   transform="rotate(-32.758532)" /><circle
   transform="rotate(-29.33812)"
   r="37.5"
   cy="123.39729"
   cx="195.05733"
   id="circle4542"
   style="opacity:1;fill:#000000;fill-opacity:1;fill-rule:nonzero;stroke:none;stroke-width:3.44294429;stroke-miterlimit:4;stroke-dasharray:none;stroke-opacity:1" /></svg>