<?xml version="1.0" encoding="utf-8"?>
<!-- Generator: Adobe Illustrator 19.1.0, SVG Export Plug-In . SVG Version: 6.00 Build 0)  -->
<svg version="1.1" id="Layer_1" xmlns="http://www.w3.org/2000/svg" xmlns:xlink="http://www.w3.org/1999/xlink" x="0px" y="0px"
	 viewBox="0 0 512 512" style="enable-background:new 0 0 512 512;" xml:space="preserve">
<style type="text/css">
	.st0{fill:#5B5C61;}
</style>
<g id="icomoon-ignore">
</g>
<path class="st0" d="M466.9,305.1C440,258.6,456.2,199,503,171.9l-50.3-87.1C438.3,93.2,421.6,98,403.7,98
	c-53.8,0-97.4-43.9-97.4-98H205.8c0.1,16.7-4,33.6-13,49.1c-26.9,46.5-86.6,62.4-133.4,35.4L9,171.7c14.5,8.2,27,20.3,35.9,35.7
	c26.8,46.5,10.8,106-35.9,133.1l50.3,87.1c14.3-8.3,31-13.1,48.7-13.1c53.6,0,97.1,43.6,97.3,97.5h100.6c0-16.5,4.1-33.3,13-48.6
	c26.8-46.5,86.4-62.3,133.2-35.5l50.3-87.1C488.2,332.5,475.8,320.5,466.9,305.1L466.9,305.1z M256,359.7
	c-57.3,0-103.7-46.4-103.7-103.7c0-57.3,46.4-103.7,103.7-103.7S359.7,198.7,359.7,256C359.7,313.3,313.3,359.7,256,359.7z"/>
</svg>
