<svg width="28" height="16" viewBox="0 0 28 16" fill="none" xmlns="http://www.w3.org/2000/svg">
<path d="M0.2968 3.13298C-0.0958701 2.74461 -0.0993586 2.11146 0.289008 1.71879L1.69541 0.296801C2.08377 -0.0958696 2.71693 -0.0993586 3.1096 0.289008L15.7124 12.7537C16.1051 13.1421 16.1086 13.7752 15.7202 14.1679L14.3138 15.5899C13.9255 15.9826 13.2923 15.9861 12.8996 15.5977L0.2968 3.13298Z" fill="black"/>
<path d="M24.0779 0.288955C24.4706 -0.0993817 25.1037 -0.095846 25.4921 0.296853L26.8984 1.71894C27.2867 2.11164 27.2832 2.7448 26.8905 3.13313L15.1093 14.7835C14.7166 15.1718 14.0834 15.1683 13.6951 14.7756L12.2888 13.3535C11.9004 12.9608 11.904 12.3276 12.2967 11.9393L24.0779 0.288955Z" fill="black"/>
</svg>
