<svg width="56" height="56" viewBox="0 0 56 56" fill="none" xmlns="http://www.w3.org/2000/svg">
<g clip-path="url(#clip0_773_9462)">
<path d="M7 9.317C7 8.03833 8.03833 7 9.317 7H46.683C47.9617 7 49 8.03833 49 9.317V46.683C48.9994 47.2973 48.7551 47.8863 48.3207 48.3207C47.8863 48.7551 47.2973 48.9994 46.683 49H9.317C8.70268 48.9994 8.1137 48.7551 7.67932 48.3207C7.24493 47.8863 7.00062 47.2973 7 46.683V9.317ZM24.7847 19.635C24.6442 19.5413 24.481 19.4875 24.3124 19.4792C24.1438 19.4709 23.9761 19.5085 23.8272 19.588C23.6782 19.6675 23.5537 19.7859 23.4667 19.9306C23.3797 20.0753 23.3336 20.2409 23.3333 20.4097V35.5903C23.3336 35.7591 23.3797 35.9247 23.4667 36.0694C23.5537 36.2141 23.6782 36.3325 23.8272 36.412C23.9761 36.4915 24.1438 36.5291 24.3124 36.5208C24.481 36.5125 24.6442 36.4587 24.7847 36.365L36.169 28.777C36.297 28.6918 36.402 28.5763 36.4746 28.4407C36.5472 28.3052 36.5852 28.1538 36.5852 28C36.5852 27.8462 36.5472 27.6948 36.4746 27.5593C36.402 27.4237 36.297 27.3082 36.169 27.223L24.7823 19.635H24.7847Z" fill="#F4F4F4"/>
</g>
<defs>
<clipPath id="clip0_773_9462">
<rect width="56" height="56" fill="white"/>
</clipPath>
</defs>
</svg>
