<?xml version="1.0" encoding="iso-8859-1"?>
<!-- Generator: Adobe Illustrator 21.0.0, SVG Export Plug-In . SVG Version: 6.00 Build 0)  -->
<svg version="1.1" id="Capa_1" xmlns="http://www.w3.org/2000/svg" xmlns:xlink="http://www.w3.org/1999/xlink" x="0px" y="0px"
	 width="20px" height="20px" viewBox="0 0 512 512" enable-background="new 0 0 80 80" xml:space="preserve">
<g>
	<g>
		<path d="M445.994,180.165H66.005L0,306.67h60.099v205.263h391.802V306.67H512L445.994,180.165z M49.477,276.678l34.709-66.52
			H231.26l-34.709,66.52H49.477z M241.003,481.94H90.091V306.67h124.641l26.271-50.351V481.94z M421.909,481.94H270.996v0V256.319
			l26.271,50.351h124.642V481.94z M315.448,276.678l-34.709-66.52h147.074l34.709,66.52H315.448z"/>
	</g>
</g>
<g>
	<g>
		<rect x="241.006" y="0.067" width="29.992" height="90.036"/>
	</g>
</g>
<g>
	<g>
		<rect x="164.752" y="15.238" transform="matrix(0.9239 -0.3827 0.3827 0.9239 -9.3768 73.3751)" width="29.993" height="90.039"/>
	</g>
</g>
<g>
	<g>
		
			<rect x="100.116" y="58.425" transform="matrix(0.7071 -0.7071 0.7071 0.7071 -39.4294 111.6939)" width="29.992" height="90.035"/>
	</g>
</g>
<g>
	<g>
		
			<rect x="351.875" y="88.452" transform="matrix(0.7071 -0.7071 0.7071 0.7071 43.0982 310.9449)" width="90.035" height="29.992"/>
	</g>
</g>
<g>
	<g>
		
			<rect x="287.237" y="45.266" transform="matrix(0.3827 -0.9239 0.9239 0.3827 149.4301 344.1651)" width="90.039" height="29.993"/>
	</g>
</g>
</svg>
