<?xml version="1.0" standalone="no"?>
<!DOCTYPE svg PUBLIC "-//W3C//DTD SVG 20010904//EN"
"http://www.w3.org/TR/2001/REC-SVG-20010904/DTD/svg10.dtd">
<svg version="1.0" xmlns="http://www.w3.org/2000/svg" width="20px" height="20px" viewBox="0 0 200.000000 200.000000" preserveAspectRatio="xMidYMid meet">
    <g transform="translate(0.000000,200.000000) scale(0.100000,-0.100000)" fill="#000000" stroke="none">
        <path d="M790 1650 l-195 -169 -179 0 c-173 -1 -181 -2 -222 -26 -26 -15 -54 -43 -69 -69 l-25 -43 0 -513 0 -513 25 -43 c15 -26 43 -54 69 -69 l43 -25 763 0 763 0 43 25 c26 15 54 43 69 69 l25 43 0 513 0 513 -25 43 c-15 26 -43 54 -69 69 -41 24 -49 25 -220 25 l-177 0 -199 170 c-110 94 -205 170 -212 169 -7 0 -101 -76 -208 -169z m386 -150 l176 -150 186 0 c177 0 187 -1 209 -22 l23 -21 0 -476 c0 -474 0 -475 -22 -498 l-21 -23 -726 0 -725 0 -23 22 -23 21 0 476 c0 474 0 475 22 498 21 22 26 23 209 23 l187 0 174 149 c95 82 174 150 176 150 1 1 81 -66 178 -149z"/> <path d="M542 1174 c-16 -11 -22 -25 -22 -54 0 -72 -14 -70 500 -70 514 0 500 -2 500 70 0 72 14 70 -500 70 -396 0 -458 -2 -478 -16z"/> 
        <path d="M522 884 c-16 -11 -22 -25 -22 -54 0 -72 -14 -70 500 -70 514 0 500 -2 500 70 0 72 14 70 -500 70 -396 0 -458 -2 -478 -16z"/>
        <path d="M517 592 c-24 -26 -22 -88 2 -102 27 -14 935 -14 962 0 14 8 19 21 19 49 0 74 21 71 -502 71 -438 0 -466 -1 -481 -18z"/>
    </g>
</svg> 